{
    "asset" : {
        "copyright" : "Sascha Willems",
        "generator" : "Khronos glTF Blender I/O v1.0.5",
        "version" : "2.0"
    },
    "scene" : 0,
    "scenes" : [
        {
            "name" : "Scene",
            "nodes" : [
                0
            ]
        }
    ],
    "nodes" : [
        {
            "mesh" : 0,
            "name" : "Sphere",
            "scale" : [
                4,
                4,
                4
            ]
        }
    ],
    "materials" : [
        {
            "doubleSided" : true,
            "name" : "Material.001",
            "pbrMetallicRoughness" : {
                "metallicFactor" : 0,
                "roughnessFactor" : 0.5
            }
        }
    ],
    "meshes" : [
        {
            "name" : "Sphere.001",
            "primitives" : [
                {
                    "attributes" : {
                        "POSITION" : 0,
                        "NORMAL" : 1,
                        "TEXCOORD_0" : 2
                    },
                    "indices" : 3,
                    "material" : 0
                }
            ]
        }
    ],
    "accessors" : [
        {
            "bufferView" : 0,
            "componentType" : 5126,
            "count" : 1087,
            "max" : [
                1.0000007152557373,
                1,
                1.000001311302185
            ],
            "min" : [
                -1.000000238418579,
                -1,
                -1
            ],
            "type" : "VEC3"
        },
        {
            "bufferView" : 1,
            "componentType" : 5126,
            "count" : 1087,
            "type" : "VEC3"
        },
        {
            "bufferView" : 2,
            "componentType" : 5126,
            "count" : 1087,
            "type" : "VEC2"
        },
        {
            "bufferView" : 3,
            "componentType" : 5123,
            "count" : 5952,
            "type" : "SCALAR"
        }
    ],
    "bufferViews" : [
        {
            "buffer" : 0,
            "byteLength" : 13044,
            "byteOffset" : 0
        },
        {
            "buffer" : 0,
            "byteLength" : 13044,
            "byteOffset" : 13044
        },
        {
            "buffer" : 0,
            "byteLength" : 8696,
            "byteOffset" : 26088
        },
        {
            "buffer" : 0,
            "byteLength" : 11904,
            "byteOffset" : 34784
        }
    ],
    "buffers" : [
        {
            "byteLength" : 46688,
            "uri" : "data:application/octet-stream;base64,"
        }
    ]
}
